Poster: 
http://imgh.us/whitecollarhooligan2d_1.jpg

IMDB: www.imdb.com/title/tt2121377/

Plot:
This beautiful game isn't life or death... it's more important than that.


Format : AVI
Format/Info : Audio Video Interleave
File size : 713 MiB
Duration : 1h 17mn
Overall bit rate : 1280 Kbps
Writing application : Lavf53.21.0
Original source form/Name : WHITE_COLLAR_HOOLIGAN

Video
ID : 0
Format : MPEG-4 Visual
Format profile : Advanced Simple@L5
Format settings, BVOP : 2
Format settings, QPel : No
Format settings, GMC : No warppoints
Format settings, Matrix : Default (H.263)
Muxing mode : Packed bitstream
Codec ID : DX50
Codec ID/Hint : DivX 5
Duration : 1h 17mn
Bit rate : 821 Kbps
Width : 720 pixels
Height : 310 pixels
Display aspect ratio : 2.35:1
Frame rate : 25.000 fps
Color space : YUV
Chroma subsampling : 4:2:0
Bit depth : 8 bits
Scan type : Progressive
Compression mode : Lossy
Bits/(Pixel*Frame) : 0.147
Stream size : 458 MiB (64%)
Writing library : XviD 1.2.1 (UTC 2008-12-04)

Audio
ID : 1
Format : AC-3
Format/Info : Audio Coding 3
Mode extension : CM (complete main)
Codec ID : 2000
Duration : 1h 17mn
Bit rate mode : Constant
Bit rate : 448 Kbps
Channel(s) : 6 channels
Channel positions : Front: L C R, Side: L R, LFE
Sampling rate : 48.0 KHz
Bit depth : 16 bits
Compression mode : Lossy
Stream size : 250 MiB (35%)
Alignment : Aligned on interleaves
Interleave, duration : 32 ms (0.80 video frame)

SCREENS: 
http://imgh.us/The_Rise_And_Fall_Of_a_White_Collar_Hooligan_2012_DVDRip_XviD-_TWiZTED-001_1.jpg 
http://imgh.us/The_Rise_And_Fall_Of_a_White_Collar_Hooligan_2012_DVDRip_XviD-_TWiZTED-004_1.jpg 
http://imgh.us/The_Rise_And_Fall_Of_a_White_Collar_Hooligan_2012_DVDRip_XviD-_TWiZTED-015_1.jpg 
http://imgh.us/The_Rise_And_Fall_Of_a_White_Collar_Hooligan_2012_DVDRip_XviD-_TWiZTED-017_1.jpg 
http://imgh.us/The_Rise_And_Fall_Of_a_White_Collar_Hooligan_2012_DVDRip_XviD-_TWiZTED-011.jpg 
http://imgh.us/The_Rise_And_Fall_Of_a_White_Collar_Hooligan_2012_DVDRip_XviD-_TWiZTED-012.jpg 
http://imgh.us/The_Rise_And_Fall_Of_a_White_Collar_Hooligan_2012_DVDRip_XviD-_TWiZTED-013.jpg
